<svg width="194" height="38" viewBox="0 0 194 38" fill="none" xmlns="http://www.w3.org/2000/svg">
<path d="M25 19C25 25.9036 19.4036 31.5 12.5 31.5C5.59644 31.5 0 25.9036 0 19C0 12.0964 5.59644 6.5 12.5 6.5C19.4036 6.5 25 12.0964 25 19Z" fill="black"/>
<path d="M40 19C40 25.9036 34.4036 31.5 27.5 31.5C20.5964 31.5 15 25.9036 15 19C15 12.0964 20.5964 6.5 27.5 6.5C34.4036 6.5 40 12.0964 40 19Z" fill="black"/>
<path fill-rule="evenodd" clip-rule="evenodd" d="M0.25 1.5C0.25 0.947715 0.697715 0.5 1.25 0.5H3.125C3.67728 0.5 4.125 0.947715 4.125 1.5C4.125 2.05228 3.67728 2.5 3.125 2.5H1.25C0.697715 2.5 0.25 2.05228 0.25 1.5ZM5.875 1.5C5.875 0.947715 6.32272 0.5 6.875 0.5H10.625C11.1773 0.5 11.625 0.947715 11.625 1.5C11.625 2.05228 11.1773 2.5 10.625 2.5H6.875C6.32272 2.5 5.875 2.05228 5.875 1.5ZM13.375 1.5C13.375 0.947715 13.8227 0.5 14.375 0.5H18.125C18.6773 0.5 19.125 0.947715 19.125 1.5C19.125 2.05228 18.6773 2.5 18.125 2.5H14.375C13.8227 2.5 13.375 2.05228 13.375 1.5ZM20.875 1.5C20.875 0.947715 21.3227 0.5 21.875 0.5H25.625C26.1773 0.5 26.625 0.947715 26.625 1.5C26.625 2.05228 26.1773 2.5 25.625 2.5H21.875C21.3227 2.5 20.875 2.05228 20.875 1.5ZM28.375 1.5C28.375 0.947715 28.8227 0.5 29.375 0.5H33.125C33.6773 0.5 34.125 0.947715 34.125 1.5C34.125 2.05228 33.6773 2.5 33.125 2.5H29.375C28.8227 2.5 28.375 2.05228 28.375 1.5ZM35.875 1.5C35.875 0.947715 36.3227 0.5 36.875 0.5H38.75C39.3023 0.5 39.75 0.947715 39.75 1.5C39.75 2.05228 39.3023 2.5 38.75 2.5H36.875C36.3227 2.5 35.875 2.05228 35.875 1.5ZM0.25 36.5C0.25 35.9477 0.697715 35.5 1.25 35.5H3.125C3.67728 35.5 4.125 35.9477 4.125 36.5C4.125 37.0523 3.67728 37.5 3.125 37.5H1.25C0.697715 37.5 0.25 37.0523 0.25 36.5ZM5.875 36.5C5.875 35.9477 6.32272 35.5 6.875 35.5H10.625C11.1773 35.5 11.625 35.9477 11.625 36.5C11.625 37.0523 11.1773 37.5 10.625 37.5H6.875C6.32272 37.5 5.875 37.0523 5.875 36.5ZM13.375 36.5C13.375 35.9477 13.8227 35.5 14.375 35.5H18.125C18.6773 35.5 19.125 35.9477 19.125 36.5C19.125 37.0523 18.6773 37.5 18.125 37.5H14.375C13.8227 37.5 13.375 37.0523 13.375 36.5ZM20.875 36.5C20.875 35.9477 21.3227 35.5 21.875 35.5H25.625C26.1773 35.5 26.625 35.9477 26.625 36.5C26.625 37.0523 26.1773 37.5 25.625 37.5H21.875C21.3227 37.5 20.875 37.0523 20.875 36.5ZM28.375 36.5C28.375 35.9477 28.8227 35.5 29.375 35.5H33.125C33.6773 35.5 34.125 35.9477 34.125 36.5C34.125 37.0523 33.6773 37.5 33.125 37.5H29.375C28.8227 37.5 28.375 37.0523 28.375 36.5ZM35.875 36.5C35.875 35.9477 36.3227 35.5 36.875 35.5H38.75C39.3023 35.5 39.75 35.9477 39.75 36.5C39.75 37.0523 39.3023 37.5 38.75 37.5H36.875C36.3227 37.5 35.875 37.0523 35.875 36.5Z" fill="black"/>
<path d="M6.89061 21.2958C6.96299 21.4005 7.0209 21.5083 7.06433 21.6192C7.115 21.73 7.16929 21.8748 7.2272 22.0534C7.25615 22.115 7.28149 22.1858 7.3032 22.2659C7.55655 22.9742 8.03791 23.5193 8.74729 23.9011C9.45666 24.283 10.2674 24.4739 11.1794 24.4739C11.6572 24.4739 12.1204 24.4031 12.5692 24.2615C13.0252 24.1136 13.398 23.895 13.6876 23.6055C13.9843 23.3099 14.1327 22.9526 14.1327 22.5338C14.1327 22.1704 13.9807 21.8317 13.6767 21.5176C13.3799 21.2034 13.0071 20.9232 12.5584 20.6768C12.1168 20.4243 11.5052 20.1133 10.7234 19.7437C9.80411 19.3126 9.05854 18.9307 8.4867 18.5981C7.91486 18.2655 7.42988 17.8713 7.03176 17.4156C6.63364 16.9536 6.43458 16.4332 6.43458 15.8542C6.43458 15.1398 6.66983 14.5516 7.14034 14.0896C7.61808 13.6215 8.22611 13.2828 8.96444 13.0734C9.71001 12.8578 10.4954 12.75 11.3206 12.75C12.0299 12.75 12.7357 12.8239 13.4378 12.9717C14.1472 13.1195 14.8204 13.332 15.4574 13.6092L15.5985 16.2422H14.9254C14.8385 16.1006 14.7372 15.8758 14.6213 15.5678L14.5128 15.2999C14.2666 14.6963 13.8396 14.2405 13.2315 13.9326C12.6307 13.6184 11.9358 13.4614 11.1469 13.4614C10.7415 13.4614 10.3325 13.5199 9.91992 13.6369C9.50733 13.7539 9.15988 13.9356 8.87758 14.182C8.60252 14.4222 8.46498 14.7209 8.46498 15.0782C8.46498 15.4108 8.60975 15.7218 8.89929 16.0113C9.18883 16.3008 9.54714 16.5656 9.97421 16.8058C10.4013 17.0398 10.9912 17.3355 11.744 17.6927C12.7068 18.1485 13.4849 18.5519 14.0784 18.903C14.6792 19.2479 15.1896 19.6667 15.6094 20.1595C16.0365 20.6522 16.25 21.2096 16.25 21.8317C16.25 22.6016 16.0003 23.2452 15.5008 23.7626C15.0014 24.2738 14.3535 24.6495 13.5573 24.8897C12.7683 25.1299 11.9286 25.25 11.0383 25.25C10.242 25.25 9.38427 25.1669 8.46498 25.0006C7.55293 24.8281 6.8146 24.594 6.25 24.2984V21.3143L6.89061 21.2958Z" fill="white"/>
<path d="M23.383 15.5534C23.383 15.1758 23.3512 14.7885 23.2877 14.3917C23.2497 14.1997 23.1544 14.0429 23.0021 13.9213C22.8497 13.7933 22.6752 13.6941 22.4784 13.6237C22.2879 13.5469 22.0403 13.4668 21.7356 13.3836C21.5071 13.3196 21.3452 13.2716 21.25 13.2396L21.269 12.75H26.9062C28.4932 12.75 29.8898 12.958 31.0959 13.374C32.3021 13.7901 33.2543 14.4589 33.9526 15.3806C34.6509 16.2958 35 17.4799 35 18.9328C35 20.0465 34.7334 21.0865 34.2001 22.053C33.6732 23.0131 32.8893 23.7875 31.8482 24.3763C30.8134 24.9588 29.5692 25.25 28.1155 25.25H21.269L21.25 24.7508L21.7547 24.6164C22.1102 24.5332 22.3958 24.4499 22.6117 24.3667C22.8275 24.2835 23.0084 24.1459 23.1544 23.9539C23.3068 23.7555 23.383 23.4867 23.383 23.1475V15.5534ZM25.4302 22.6482C25.4302 23.2051 25.535 23.6435 25.7445 23.9635C25.9603 24.2835 26.3253 24.4563 26.8395 24.482C27.195 24.5012 27.56 24.5108 27.9346 24.5108C28.9756 24.5108 29.858 24.2675 30.5817 23.7811C31.3054 23.2883 31.845 22.6514 32.2005 21.8706C32.556 21.0897 32.7337 20.2673 32.7337 19.4032C32.7337 18.2576 32.5306 17.2431 32.1243 16.3598C31.718 15.4702 31.0864 14.7693 30.2294 14.2573C29.3788 13.7453 28.3123 13.4892 27.03 13.4892H25.4302V22.6482Z" fill="white"/>
<path d="M50.9172 23.2839C51.0208 23.4617 51.1037 23.6448 51.1659 23.8331C51.2385 24.0214 51.3162 24.2672 51.3991 24.5706C51.4406 24.6752 51.4768 24.7955 51.5079 24.9315C51.8707 26.1346 52.5599 27.0604 53.5755 27.709C54.5912 28.3576 55.7519 28.6819 57.0578 28.6819C57.7418 28.6819 58.4051 28.5616 59.0476 28.321C59.7005 28.0699 60.2343 27.6985 60.6488 27.2068C61.0737 26.7047 61.2862 26.098 61.2862 25.3866C61.2862 24.7694 61.0686 24.194 60.6333 23.6605C60.2084 23.127 59.6746 22.651 59.0321 22.2325C58.3999 21.8036 57.5241 21.2753 56.4048 20.6476C55.0886 19.9154 54.0212 19.2668 53.2024 18.7019C52.3837 18.1369 51.6893 17.4674 51.1193 16.6933C50.5493 15.9087 50.2643 15.0247 50.2643 14.0414C50.2643 12.8279 50.6011 11.8288 51.2747 11.0442C51.9588 10.2492 52.8293 9.6738 53.8864 9.31812C54.9539 8.95197 56.0784 8.7689 57.2599 8.7689C58.2755 8.7689 59.286 8.89444 60.2913 9.14551C61.3069 9.39658 62.2708 9.75749 63.1828 10.2282L63.3849 14.7004H62.421C62.2967 14.4598 62.1516 14.078 61.9857 13.5549L61.8303 13.0999C61.4779 12.0747 60.8665 11.3005 59.9959 10.7775C59.1357 10.2439 58.1408 9.97718 57.0111 9.97718C56.4307 9.97718 55.8452 10.0766 55.2545 10.2753C54.6637 10.4741 54.1663 10.7827 53.7621 11.2011C53.3682 11.6091 53.1713 12.1165 53.1713 12.7233C53.1713 13.2882 53.3786 13.8165 53.7932 14.3081C54.2077 14.7998 54.7207 15.2496 55.3322 15.6576C55.9436 16.0552 56.7883 16.5573 57.8661 17.1641C59.2445 17.9382 60.3586 18.6234 61.2085 19.2197C62.0687 19.8055 62.7993 20.5169 63.4004 21.3538C64.0119 22.1907 64.3176 23.1374 64.3176 24.194C64.3176 25.5017 63.9601 26.5949 63.245 27.4736C62.5298 28.3419 61.6023 28.98 60.4623 29.388C59.3326 29.796 58.1304 30 56.8557 30C55.7156 30 54.4875 29.8588 53.1713 29.5763C51.8655 29.2834 50.8084 28.8859 50 28.3837V23.3153L50.9172 23.2839Z" fill="black"/>
<path d="M75.8214 20.0357C75.8214 19.2511 75.7489 18.5868 75.6038 18.0428C75.4691 17.4988 75.1892 17.0594 74.7643 16.7247C74.3498 16.3899 73.7539 16.2225 72.9766 16.2225C72.7071 16.2225 72.3755 16.2801 71.9816 16.3952C71.5878 16.5102 71.2406 16.6776 70.9401 16.8973C70.6499 17.1065 70.5048 17.3524 70.5048 17.6348C70.5048 17.7499 70.5255 17.865 70.567 17.98C70.6084 18.0846 70.6758 18.2206 70.7691 18.388C70.8624 18.5449 70.9297 18.6809 70.9712 18.796C71.0126 18.9111 71.0334 19.0314 71.0334 19.1569C71.0334 19.5754 70.8986 19.9258 70.6292 20.2083C70.3701 20.4803 70.0332 20.6163 69.6187 20.6163C69.1005 20.6163 68.686 20.4227 68.375 20.0357C68.0745 19.6486 67.9242 19.1831 67.9242 18.6391C67.9242 17.8231 68.2403 17.1484 68.8725 16.6148C69.5047 16.0813 70.2664 15.689 71.1577 15.4379C72.0594 15.1869 72.8988 15.0613 73.6761 15.0613C75.1374 15.0613 76.2256 15.281 76.9407 15.7204C77.6662 16.1493 78.1429 16.7822 78.3709 17.6191C78.6093 18.4456 78.7285 19.6068 78.7285 21.1027L78.6974 21.8873C78.687 22.1175 78.6715 22.4993 78.6508 23.0328C78.6404 23.5663 78.6352 24.058 78.6352 24.5078C78.6352 26.8616 78.8788 28.0385 79.3659 28.0385C79.7182 28.0385 80.1742 27.6776 80.7339 26.9558L81.3868 27.6619C80.9308 28.4151 80.48 28.98 80.0343 29.3566C79.5887 29.7228 79.0031 29.9058 78.2777 29.9058C77.5937 29.9058 77.0288 29.6914 76.5832 29.2625C76.1479 28.8231 75.9095 28.2582 75.8681 27.5678C75.2048 28.3 74.4586 28.8754 73.6295 29.2939C72.8108 29.7019 71.9402 29.9058 71.0178 29.9058C70.3753 29.9058 69.7793 29.7908 69.2301 29.5606C68.6911 29.32 68.2559 28.9643 67.9242 28.4936C67.6029 28.0228 67.4423 27.4579 67.4423 26.7989C67.4423 25.805 67.8206 24.9786 68.5771 24.3195C69.3337 23.6605 70.2043 23.1583 71.1888 22.8131C72.1734 22.4679 73.3756 22.1227 74.7954 21.7775C74.9198 21.7565 75.2618 21.6728 75.8214 21.5264V20.0357ZM75.8214 22.4522C75.666 22.5045 75.4691 22.5673 75.2307 22.6405C74.3394 22.9334 73.5777 23.2159 72.9455 23.4879C72.3133 23.7494 71.7485 24.1051 71.251 24.5549C70.7535 25.0048 70.5048 25.533 70.5048 26.1398C70.5048 26.757 70.6706 27.2435 71.0023 27.5991C71.3443 27.9548 71.821 28.1327 72.4325 28.1327C73.0439 28.1327 73.6347 27.981 74.2047 27.6776C74.7747 27.3638 75.3136 26.9558 75.8214 26.4536V22.4522Z" fill="black"/>
<path d="M89.0664 29.7803C88.942 29.8431 88.7866 29.8745 88.6 29.8745C88.4031 29.8745 88.2477 29.8431 88.1336 29.7803L83.3767 18.2311C83.2005 17.7917 83.0398 17.4674 82.8947 17.2582C82.7496 17.0385 82.6097 16.8868 82.475 16.8031C82.3403 16.7194 82.1485 16.641 81.8998 16.5678C81.6407 16.4841 81.4024 16.3952 81.1847 16.301V15.485H88.1803C88.1803 15.5687 88.1906 15.6942 88.2114 15.8616C88.2425 16.029 88.258 16.1859 88.258 16.3324C87.5844 16.5207 87.0817 16.7038 86.7501 16.8816C86.4184 17.0594 86.2526 17.321 86.2526 17.6662C86.2526 17.7708 86.2785 17.912 86.3303 18.0899L89.5017 25.9829L92.1755 19.408C92.4657 18.6862 92.6108 18.1317 92.6108 17.7447C92.5797 17.3785 92.4035 17.1013 92.0823 16.913C91.7713 16.7142 91.2739 16.5311 90.5899 16.3638C90.5795 16.301 90.5743 16.1807 90.5743 16.0029C90.5743 15.8773 90.5743 15.7675 90.5743 15.6733C90.5847 15.5792 90.5899 15.5164 90.5899 15.485H96.3729C96.3936 15.6629 96.404 15.9296 96.404 16.2853C96.2071 16.4004 96.0153 16.4945 95.8288 16.5678C95.5282 16.7038 95.2795 16.8345 95.0826 16.9601C94.896 17.0751 94.6939 17.2582 94.4763 17.5093C94.269 17.7603 94.0721 18.0951 93.8856 18.5136L89.0664 29.7803Z" fill="black"/>
<path d="M101.456 8C101.954 8 102.379 8.17784 102.731 8.53352C103.083 8.88921 103.26 9.31812 103.26 9.82026C103.26 10.3329 103.083 10.767 102.731 11.1227C102.379 11.4679 101.954 11.6405 101.456 11.6405C100.949 11.6405 100.518 11.4679 100.166 11.1227C99.824 10.767 99.653 10.3329 99.653 9.82026C99.653 9.31812 99.824 8.88921 100.166 8.53352C100.518 8.17784 100.949 8 101.456 8ZM100.213 18.184C100.078 17.9434 99.824 17.729 99.4509 17.5407C99.0882 17.3419 98.7099 17.1797 98.3161 17.0542C97.9326 16.9182 97.7409 16.8554 97.7409 16.8659L97.772 16.3167L102.14 15.2496L103.104 15.1869V26.1398C103.104 26.5059 103.14 26.8512 103.213 27.1755C103.296 27.4998 103.534 27.8293 103.928 28.1641C104.332 28.4988 104.964 28.7133 105.825 28.8074C105.825 29.1526 105.819 29.4142 105.809 29.592H97.6943C97.6735 29.4037 97.6632 29.1422 97.6632 28.8074L98.0985 28.6819C98.5545 28.5563 98.9224 28.4308 99.2022 28.3053C99.482 28.1797 99.7204 27.9967 99.9173 27.7561C100.114 27.505 100.213 27.1702 100.213 26.7518V18.184Z" fill="black"/>
<path d="M112.23 25.9201C112.23 26.7989 112.406 27.4788 112.758 27.9601C113.121 28.4308 113.717 28.7133 114.546 28.8074C114.546 28.9643 114.541 29.1213 114.53 29.2782C114.52 29.4351 114.515 29.5397 114.515 29.592H106.866L106.851 28.8074C106.944 28.7447 107.063 28.6871 107.208 28.6348C107.364 28.5825 107.519 28.5354 107.675 28.4936C108.131 28.368 108.488 28.2321 108.747 28.0856C109.006 27.9287 109.162 27.6985 109.214 27.3952C109.297 26.9453 109.338 26.485 109.338 26.0143L109.322 11.2482C109.198 11.039 108.944 10.835 108.561 10.6362C108.188 10.427 107.82 10.2544 107.457 10.1184C107.094 9.97194 106.861 9.88302 106.757 9.85164L106.789 9.30243L111.11 8.10984L112.23 8V25.9201Z" fill="black"/>
<path d="M127.371 13.7432C127.371 13.126 127.319 12.4931 127.216 11.8445C127.153 11.5307 126.998 11.2744 126.749 11.0756C126.5 10.8664 126.215 10.7042 125.894 10.5892C125.583 10.4636 125.179 10.3329 124.682 10.1969C124.309 10.0922 124.044 10.0138 123.889 9.96148L123.92 9.1612H133.123C135.714 9.1612 137.994 9.50119 139.963 10.1812C141.932 10.8612 143.487 11.9544 144.627 13.4608C145.767 14.9567 146.337 16.8921 146.337 19.2668C146.337 21.087 145.902 22.787 145.031 24.3666C144.171 25.9358 142.891 27.2016 141.191 28.1641C139.502 29.116 137.471 29.592 135.097 29.592H123.92L123.889 28.776L124.713 28.5563C125.293 28.4204 125.759 28.2844 126.112 28.1484C126.464 28.0124 126.76 27.7874 126.998 27.4736C127.247 27.1493 127.371 26.7099 127.371 26.1555V13.7432ZM130.713 25.3395C130.713 26.2496 130.884 26.9662 131.226 27.4893C131.579 28.0124 132.175 28.2948 133.014 28.3367C133.595 28.368 134.19 28.3837 134.802 28.3837C136.502 28.3837 137.942 27.9862 139.124 27.1912C140.305 26.3856 141.186 25.3447 141.766 24.0685C142.347 22.7922 142.637 21.4479 142.637 20.0357C142.637 18.1631 142.305 16.505 141.642 15.0613C140.979 13.6072 139.948 12.4617 138.548 11.6248C137.16 10.7879 135.419 10.3695 133.325 10.3695H130.713V25.3395Z" fill="black"/>
<path d="M151.793 21.3381C151.783 21.4427 151.778 21.5944 151.778 21.7932C151.778 23.1113 152.011 24.2149 152.477 25.1041C152.954 25.9829 153.586 26.6367 154.374 27.0656C155.172 27.4841 156.063 27.6933 157.048 27.6933C158.354 27.6933 159.613 27.3167 160.825 26.5635L161.276 27.0029C161.028 27.6096 160.608 28.1327 160.017 28.572C159.437 29.0114 158.773 29.3462 158.027 29.5763C157.291 29.796 156.576 29.9058 155.882 29.9058C154.576 29.9058 153.4 29.5972 152.353 28.98C151.317 28.3628 150.503 27.4998 149.912 26.3909C149.332 25.282 149.042 24.0109 149.042 22.5777C149.042 21.1236 149.358 19.8264 149.99 18.6862C150.622 17.5354 151.462 16.6462 152.508 16.0185C153.566 15.3804 154.695 15.0613 155.897 15.0613C156.882 15.0613 157.768 15.2653 158.556 15.6733C159.354 16.0709 160.002 16.6358 160.499 17.368C160.996 18.0899 161.313 18.9215 161.447 19.8631C161.561 20.3443 161.618 20.7889 161.618 21.1969V21.3381H151.793ZM157.39 20.3338C157.846 20.3129 158.229 20.2292 158.54 20.0827C158.468 18.8379 158.177 17.865 157.67 17.1641C157.172 16.4631 156.462 16.1127 155.54 16.1127C154.866 16.1127 154.265 16.3167 153.737 16.7247C153.218 17.1327 152.799 17.6767 152.477 18.3566C152.156 19.0262 151.949 19.7637 151.856 20.5692L157.39 20.3338Z" fill="black"/>
<path d="M173.495 19.6904C173.35 19.7009 173.107 19.7061 172.765 19.7061C172.464 18.6495 172.008 17.7865 171.397 17.117C170.795 16.4475 170.023 16.1127 169.08 16.1127C168.427 16.1127 167.909 16.2748 167.526 16.5991C167.153 16.9234 166.966 17.3942 166.966 18.0114C166.966 18.4403 167.121 18.8379 167.432 19.204C167.743 19.5701 168.122 19.8944 168.567 20.1769C169.023 20.4489 169.619 20.7732 170.355 21.1498C170.531 21.2335 170.795 21.3695 171.148 21.5578C172.309 22.1854 173.153 22.8288 173.682 23.4879C174.221 24.1365 174.49 24.9315 174.49 25.873C174.49 26.7413 174.278 27.4788 173.853 28.0856C173.428 28.6819 172.842 29.1369 172.096 29.4508C171.35 29.7542 170.495 29.9058 169.531 29.9058C168.681 29.9058 167.821 29.8012 166.95 29.592C166.08 29.3932 165.365 29.1213 164.805 28.776V24.9472C165.209 24.8949 165.484 24.8688 165.629 24.8688C165.867 26.03 166.287 26.9767 166.888 27.709C167.5 28.4413 168.334 28.8074 169.391 28.8074C170.148 28.8074 170.775 28.6191 171.272 28.2425C171.78 27.8554 172.034 27.3481 172.034 26.7204C172.034 26.3229 171.92 25.9724 171.692 25.669C171.464 25.3657 171.169 25.0989 170.806 24.8688C170.443 24.6386 169.899 24.33 169.173 23.9429C168.199 23.4199 167.458 22.9962 166.95 22.6719C166.163 22.1802 165.567 21.631 165.163 21.0243C164.769 20.4175 164.572 19.6957 164.572 18.8588C164.572 18.0533 164.774 17.368 165.178 16.8031C165.582 16.2278 166.132 15.7936 166.826 15.5007C167.52 15.2078 168.303 15.0613 169.173 15.0613C169.971 15.0613 170.728 15.1607 171.443 15.3595C172.169 15.5583 172.822 15.8407 173.402 16.2068L173.495 19.6904Z" fill="black"/>
<path d="M177.288 29.592L177.273 29.0899C177.273 28.9225 177.278 28.8074 177.288 28.7447C177.889 28.5982 178.34 28.4674 178.641 28.3524C178.952 28.2373 179.206 28.049 179.403 27.7874C179.599 27.5259 179.698 27.1598 179.698 26.689V11.3267C179.594 11.1698 179.366 10.9815 179.014 10.7618C178.662 10.5316 178.288 10.3276 177.895 10.1498C177.511 9.97194 177.226 9.87256 177.04 9.85164V9.30243L181.486 8.10984L182.589 8V22.1384H183.864L188.839 17.2111C188.86 17.1588 188.87 17.1013 188.87 17.0385C188.87 16.7979 188.771 16.641 188.575 16.5678C188.388 16.4841 188.103 16.4213 187.72 16.3795C187.419 16.3481 187.201 16.3115 187.067 16.2696C186.932 16.2278 186.865 16.1388 186.865 16.0029C186.865 15.8564 186.88 15.6838 186.911 15.485H193.503L193.549 16.0029C193.549 16.2225 193.119 16.4213 192.259 16.5991C191.554 16.7456 191.026 16.9705 190.673 17.2739L186.383 21.7147L190.487 27.0813C190.808 27.5102 191.217 27.8502 191.715 28.1013C192.212 28.3524 192.673 28.525 193.098 28.6191C193.534 28.7133 193.834 28.7603 194 28.7603L193.953 29.592H186.258C186.248 29.5083 186.227 29.3514 186.196 29.1213C186.175 28.8911 186.17 28.776 186.18 28.776C186.782 28.776 187.191 28.708 187.409 28.572C187.626 28.4256 187.735 28.2634 187.735 28.0856C187.735 27.9914 187.668 27.8711 187.533 27.7247L183.911 23.0014H182.589V26.1084C182.589 27.0081 182.812 27.6619 183.258 28.0699C183.714 28.4674 184.403 28.7133 185.325 28.8074C185.325 28.9643 185.32 29.1213 185.31 29.2782C185.3 29.4351 185.294 29.5397 185.294 29.592H177.288Z" fill="black"/>
</svg>
