<svg width="40" height="38" viewBox="0 0 40 38" fill="none" xmlns="http://www.w3.org/2000/svg">
<path d="M25 19C25 25.9036 19.4036 31.5 12.5 31.5C5.59644 31.5 0 25.9036 0 19C0 12.0964 5.59644 6.5 12.5 6.5C19.4036 6.5 25 12.0964 25 19Z" fill="white"/>
<path d="M40 19C40 25.9036 34.4036 31.5 27.5 31.5C20.5964 31.5 15 25.9036 15 19C15 12.0964 20.5964 6.5 27.5 6.5C34.4036 6.5 40 12.0964 40 19Z" fill="white"/>
<path fill-rule="evenodd" clip-rule="evenodd" d="M0.25 1.5C0.25 0.947715 0.697715 0.5 1.25 0.5H3.125C3.67728 0.5 4.125 0.947715 4.125 1.5C4.125 2.05228 3.67728 2.5 3.125 2.5H1.25C0.697715 2.5 0.25 2.05228 0.25 1.5ZM5.875 1.5C5.875 0.947715 6.32272 0.5 6.875 0.5H10.625C11.1773 0.5 11.625 0.947715 11.625 1.5C11.625 2.05228 11.1773 2.5 10.625 2.5H6.875C6.32272 2.5 5.875 2.05228 5.875 1.5ZM13.375 1.5C13.375 0.947715 13.8227 0.5 14.375 0.5H18.125C18.6773 0.5 19.125 0.947715 19.125 1.5C19.125 2.05228 18.6773 2.5 18.125 2.5H14.375C13.8227 2.5 13.375 2.05228 13.375 1.5ZM20.875 1.5C20.875 0.947715 21.3227 0.5 21.875 0.5H25.625C26.1773 0.5 26.625 0.947715 26.625 1.5C26.625 2.05228 26.1773 2.5 25.625 2.5H21.875C21.3227 2.5 20.875 2.05228 20.875 1.5ZM28.375 1.5C28.375 0.947715 28.8227 0.5 29.375 0.5H33.125C33.6773 0.5 34.125 0.947715 34.125 1.5C34.125 2.05228 33.6773 2.5 33.125 2.5H29.375C28.8227 2.5 28.375 2.05228 28.375 1.5ZM35.875 1.5C35.875 0.947715 36.3227 0.5 36.875 0.5H38.75C39.3023 0.5 39.75 0.947715 39.75 1.5C39.75 2.05228 39.3023 2.5 38.75 2.5H36.875C36.3227 2.5 35.875 2.05228 35.875 1.5ZM0.25 36.5C0.25 35.9477 0.697715 35.5 1.25 35.5H3.125C3.67728 35.5 4.125 35.9477 4.125 36.5C4.125 37.0523 3.67728 37.5 3.125 37.5H1.25C0.697715 37.5 0.25 37.0523 0.25 36.5ZM5.875 36.5C5.875 35.9477 6.32272 35.5 6.875 35.5H10.625C11.1773 35.5 11.625 35.9477 11.625 36.5C11.625 37.0523 11.1773 37.5 10.625 37.5H6.875C6.32272 37.5 5.875 37.0523 5.875 36.5ZM13.375 36.5C13.375 35.9477 13.8227 35.5 14.375 35.5H18.125C18.6773 35.5 19.125 35.9477 19.125 36.5C19.125 37.0523 18.6773 37.5 18.125 37.5H14.375C13.8227 37.5 13.375 37.0523 13.375 36.5ZM20.875 36.5C20.875 35.9477 21.3227 35.5 21.875 35.5H25.625C26.1773 35.5 26.625 35.9477 26.625 36.5C26.625 37.0523 26.1773 37.5 25.625 37.5H21.875C21.3227 37.5 20.875 37.0523 20.875 36.5ZM28.375 36.5C28.375 35.9477 28.8227 35.5 29.375 35.5H33.125C33.6773 35.5 34.125 35.9477 34.125 36.5C34.125 37.0523 33.6773 37.5 33.125 37.5H29.375C28.8227 37.5 28.375 37.0523 28.375 36.5ZM35.875 36.5C35.875 35.9477 36.3227 35.5 36.875 35.5H38.75C39.3023 35.5 39.75 35.9477 39.75 36.5C39.75 37.0523 39.3023 37.5 38.75 37.5H36.875C36.3227 37.5 35.875 37.0523 35.875 36.5Z" fill="white"/>
<path d="M6.89061 21.2958C6.96299 21.4005 7.0209 21.5083 7.06433 21.6192C7.115 21.73 7.16929 21.8748 7.2272 22.0534C7.25615 22.115 7.28149 22.1858 7.3032 22.2659C7.55655 22.9742 8.03791 23.5193 8.74729 23.9011C9.45666 24.283 10.2674 24.4739 11.1794 24.4739C11.6572 24.4739 12.1204 24.4031 12.5692 24.2615C13.0252 24.1136 13.398 23.895 13.6876 23.6055C13.9843 23.3099 14.1327 22.9526 14.1327 22.5338C14.1327 22.1704 13.9807 21.8317 13.6767 21.5176C13.3799 21.2034 13.0071 20.9232 12.5584 20.6768C12.1168 20.4243 11.5052 20.1133 10.7234 19.7437C9.80411 19.3126 9.05854 18.9307 8.4867 18.5981C7.91486 18.2655 7.42988 17.8713 7.03176 17.4156C6.63364 16.9536 6.43458 16.4332 6.43458 15.8542C6.43458 15.1398 6.66983 14.5516 7.14034 14.0896C7.61808 13.6215 8.22611 13.2828 8.96444 13.0734C9.71001 12.8578 10.4954 12.75 11.3206 12.75C12.0299 12.75 12.7357 12.8239 13.4378 12.9717C14.1472 13.1195 14.8204 13.332 15.4574 13.6092L15.5985 16.2422H14.9254C14.8385 16.1006 14.7372 15.8758 14.6213 15.5678L14.5128 15.2999C14.2666 14.6963 13.8396 14.2405 13.2315 13.9326C12.6307 13.6184 11.9358 13.4614 11.1469 13.4614C10.7415 13.4614 10.3325 13.5199 9.91992 13.6369C9.50733 13.7539 9.15988 13.9356 8.87758 14.182C8.60252 14.4222 8.46498 14.7209 8.46498 15.0782C8.46498 15.4108 8.60975 15.7218 8.89929 16.0113C9.18883 16.3008 9.54714 16.5656 9.97421 16.8058C10.4013 17.0398 10.9912 17.3355 11.744 17.6927C12.7068 18.1485 13.4849 18.5519 14.0784 18.903C14.6792 19.2479 15.1896 19.6667 15.6094 20.1595C16.0365 20.6522 16.25 21.2096 16.25 21.8317C16.25 22.6016 16.0003 23.2452 15.5008 23.7626C15.0014 24.2738 14.3535 24.6495 13.5573 24.8897C12.7683 25.1299 11.9286 25.25 11.0383 25.25C10.242 25.25 9.38427 25.1669 8.46498 25.0006C7.55293 24.8281 6.8146 24.594 6.25 24.2984V21.3143L6.89061 21.2958Z" fill="black"/>
<path d="M23.383 15.5534C23.383 15.1758 23.3512 14.7885 23.2877 14.3917C23.2497 14.1997 23.1544 14.0429 23.0021 13.9213C22.8497 13.7933 22.6752 13.6941 22.4784 13.6237C22.2879 13.5469 22.0403 13.4668 21.7356 13.3836C21.5071 13.3196 21.3452 13.2716 21.25 13.2396L21.269 12.75H26.9062C28.4932 12.75 29.8898 12.958 31.0959 13.374C32.3021 13.7901 33.2543 14.4589 33.9526 15.3806C34.6509 16.2958 35 17.4799 35 18.9328C35 20.0465 34.7334 21.0865 34.2001 22.053C33.6732 23.0131 32.8893 23.7875 31.8482 24.3763C30.8134 24.9588 29.5692 25.25 28.1155 25.25H21.269L21.25 24.7508L21.7547 24.6164C22.1102 24.5332 22.3958 24.4499 22.6117 24.3667C22.8275 24.2835 23.0084 24.1459 23.1544 23.9539C23.3068 23.7555 23.383 23.4867 23.383 23.1475V15.5534ZM25.4302 22.6482C25.4302 23.2051 25.535 23.6435 25.7445 23.9635C25.9603 24.2835 26.3253 24.4563 26.8395 24.482C27.195 24.5012 27.56 24.5108 27.9346 24.5108C28.9756 24.5108 29.858 24.2675 30.5817 23.7811C31.3054 23.2883 31.845 22.6514 32.2005 21.8706C32.556 21.0897 32.7337 20.2673 32.7337 19.4032C32.7337 18.2576 32.5306 17.2431 32.1243 16.3598C31.718 15.4702 31.0864 14.7693 30.2294 14.2573C29.3788 13.7453 28.3123 13.4892 27.03 13.4892H25.4302V22.6482Z" fill="black"/>
</svg>
